<svg width="26" height="26" viewBox="0 0 26 26" fill="none" xmlns="http://www.w3.org/2000/svg">
<path opacity="0.35" d="M23.1584 16.8866C23.1584 18.6298 21.7455 20.0426 20.0023 20.0426H10.5027C9.84203 20.0426 9.19925 20.2488 8.66167 20.6317L5.695 22.7463C4.19063 23.8193 2.11816 22.7463 2.11816 20.9158V6.36648C2.11816 4.6233 3.53101 3.21045 5.2742 3.21045H20.0023C21.7455 3.21045 23.1584 4.6233 23.1584 6.36648V16.8866Z" fill="white"/>
<path d="M12.6386 13.2044C13.5101 13.2044 14.2166 12.4979 14.2166 11.6264C14.2166 10.7548 13.5101 10.0483 12.6386 10.0483C11.767 10.0483 11.0605 10.7548 11.0605 11.6264C11.0605 12.4979 11.767 13.2044 12.6386 13.2044Z" fill="white"/>
<path d="M17.8988 13.2044C18.7703 13.2044 19.4768 12.4979 19.4768 11.6264C19.4768 10.7548 18.7703 10.0483 17.8988 10.0483C17.0273 10.0483 16.3208 10.7548 16.3208 11.6264C16.3208 12.4979 17.0273 13.2044 17.8988 13.2044Z" fill="white"/>
<path d="M7.37855 13.2044C8.25007 13.2044 8.95657 12.4979 8.95657 11.6264C8.95657 10.7548 8.25007 10.0483 7.37855 10.0483C6.50704 10.0483 5.80054 10.7548 5.80054 11.6264C5.80054 12.4979 6.50704 13.2044 7.37855 13.2044Z" fill="white"/>
</svg>
