<svg width="81" height="81" viewBox="0 0 81 81" fill="none" xmlns="http://www.w3.org/2000/svg">
<path opacity="0.35" d="M52.756 47.4551H27.8438V57.42H52.756V47.4551Z" fill="black"/>
<path opacity="0.35" d="M40.2999 39.9816C47.1792 39.9816 52.756 34.4048 52.756 27.5255C52.756 20.6461 47.1792 15.0693 40.2999 15.0693C33.4206 15.0693 27.8438 20.6461 27.8438 27.5255C27.8438 34.4048 33.4206 39.9816 40.2999 39.9816Z" fill="black"/>
<path d="M62.5793 53.449C61.8992 49.899 58.5934 47.4551 54.9786 47.4551H47.7739L40.3003 57.42L32.8266 47.4551H27.8466C22.0072 47.4551 18.7013 49.899 18.0212 53.449C17.1044 58.2247 20.7416 62.4024 25.3529 62.4024H55.2476C59.8589 62.4024 63.4961 58.2247 62.5793 53.449Z" fill="black"/>
</svg>
