<svg width="22" height="19" viewBox="0 0 22 19" fill="none" xmlns="http://www.w3.org/2000/svg">
<path d="M19.5336 13.7261C19.1261 13.7261 1.99138 13.7261 1.58381 13.7261C0.709547 13.7261 0 14.4356 0 15.3099C0 16.1841 0.709547 16.8937 1.58381 16.8937C1.99138 16.8937 19.1261 16.8937 19.5336 16.8937C20.4079 16.8937 21.1175 16.1841 21.1175 15.3099C21.1175 14.4356 20.4079 13.7261 19.5336 13.7261Z" fill="black"/>
<path d="M5.2809 15.8379H2.11328C2.11328 15.8379 2.11328 17.0141 2.11328 17.4217C2.11328 18.296 2.82283 19.0055 3.69709 19.0055C4.57135 19.0055 5.2809 18.296 5.2809 17.4217C5.2809 17.0141 5.2809 15.8379 5.2809 15.8379Z" fill="black"/>
<path d="M19.0075 15.8379H15.8398C15.8398 15.8379 15.8398 17.0141 15.8398 17.4217C15.8398 18.296 16.5494 19.0055 17.4237 19.0055C18.2979 19.0055 19.0075 18.296 19.0075 17.4217C19.0075 17.0141 19.0075 15.8379 19.0075 15.8379Z" fill="black"/>
<path opacity="0.35" d="M5.27818 13.7263H3.16643C1.99969 13.7263 1.05469 12.7813 1.05469 11.6146V2.11175C1.05469 0.945006 1.99969 0 3.16643 0H5.27818C6.44492 0 7.38993 0.945006 7.38993 2.11175V11.6146C7.38993 12.7813 6.44492 13.7263 5.27818 13.7263Z" fill="black"/>
<path d="M11.6129 13.7264H9.50119C8.91834 13.7264 8.44531 13.2534 8.44531 12.6705V3.16769C8.44531 2.58485 8.91834 2.11182 9.50119 2.11182H11.6129C12.1958 2.11182 12.6688 2.58485 12.6688 3.16769V12.6705C12.6688 13.2534 12.1958 13.7264 11.6129 13.7264Z" fill="black"/>
<path opacity="0.35" d="M19.0763 13.3053L18.466 13.583C17.6593 13.9494 16.7091 13.5936 16.3427 12.7869L12.8551 5.11702C12.4887 4.31033 12.8446 3.36004 13.6512 2.99366L14.2615 2.71596C15.0682 2.34957 16.0185 2.7054 16.3849 3.51209L19.8725 11.182C20.2388 11.9876 19.883 12.9379 19.0763 13.3053Z" fill="black"/>
<path d="M5.27971 8.44678H3.16797V10.5585H5.27971V8.44678Z" fill="black"/>
<path d="M5.27853 10.5585C5.86167 10.5585 6.3344 10.0858 6.3344 9.50265C6.3344 8.91951 5.86167 8.44678 5.27853 8.44678C4.69539 8.44678 4.22266 8.91951 4.22266 9.50265C4.22266 10.0858 4.69539 10.5585 5.27853 10.5585Z" fill="black"/>
<path d="M3.16915 10.5585C3.7523 10.5585 4.22503 10.0858 4.22503 9.50265C4.22503 8.91951 3.7523 8.44678 3.16915 8.44678C2.58601 8.44678 2.11328 8.91951 2.11328 9.50265C2.11328 10.0858 2.58601 10.5585 3.16915 10.5585Z" fill="black"/>
</svg>
