<svg width="20" height="20" viewBox="0 0 20 20" fill="none" xmlns="http://www.w3.org/2000/svg">
<path opacity="0.35" d="M10 17.5C14.1421 17.5 17.5 14.1421 17.5 10C17.5 5.85786 14.1421 2.5 10 2.5C5.85786 2.5 2.5 5.85786 2.5 10C2.5 14.1421 5.85786 17.5 10 17.5Z" fill="black" stroke="black" stroke-width="2" stroke-miterlimit="10" stroke-linecap="round" stroke-linejoin="round"/>
<path d="M12.5836 11.8333C12.5836 9 9.41691 9.41667 9.41691 7.91667C9.41691 7.08333 10.0836 6.91667 10.3336 6.91667C10.5836 6.91667 10.7502 7 10.9169 7.08333C11.3336 7.25 11.8336 7.08333 12.0836 6.75C12.4169 6.25 12.2502 5.58333 11.7502 5.33333C11.5002 5.16667 11.0836 5.08333 10.6669 5.08333V4.66667C10.6669 4.25 10.3336 4 10.0002 4C9.66691 4 9.33357 4.33333 9.33357 4.66667V5.25C8.16691 5.58333 7.41691 6.66667 7.41691 8C7.41691 11 10.5002 10.4167 10.5002 12C10.5002 12.3333 10.3336 12.9167 9.58357 12.9167C9.25024 12.9167 8.91691 12.8333 8.75024 12.6667C8.33357 12.5 7.83357 12.6667 7.58357 13C7.25024 13.4167 7.41691 14.0833 7.83357 14.3333C8.25024 14.5833 8.66691 14.75 9.25024 14.75V15.25C9.25024 15.6667 9.58357 15.9167 9.91691 15.9167C10.3336 15.9167 10.5836 15.5833 10.5836 15.25V14.6667C11.9169 14.3333 12.5836 13.1667 12.5836 11.8333Z" fill="black"/>
</svg>
