<svg width="39" height="38" viewBox="0 0 39 38" fill="none" xmlns="http://www.w3.org/2000/svg">
<defs>
<clipPath id="clip0_70_11660">
<rect width="37.4655" height="37.4655" fill="white" transform="translate(0.734375 0.0166016)"/>
</clipPath>
</defs>
<g clip-path="url(#clip0_70_11660)">
<path opacity="0.35" d="M28.8339 4.7002H10.1012C7.51448 4.7002 5.41797 6.7967 5.41797 9.38338V28.1161C5.41797 30.7028 7.51448 32.7993 10.1012 32.7993H28.8339C31.4206 32.7993 33.5171 30.7028 33.5171 28.1161V9.38338C33.5171 6.7967 31.4206 4.7002 28.8339 4.7002Z" fill="black"/>
<path opacity="0.35" d="M24.2367 21.8545H15.3633V25.4039H24.2367V21.8545Z" fill="black"/>
<path d="M19.2219 19.8177C21.6722 19.8177 23.6586 17.8314 23.6586 15.381C23.6586 12.9307 21.6722 10.9443 19.2219 10.9443C16.7715 10.9443 14.7852 12.9307 14.7852 15.381C14.7852 17.8314 16.7715 19.8177 19.2219 19.8177Z" fill="black"/>
<path d="M27.7342 23.9894C27.4919 22.725 26.3144 21.8545 25.0269 21.8545H22.4607L19.7987 25.4039L17.1367 21.8545H15.3629C13.2829 21.8545 12.1054 22.725 11.8632 23.9894C11.5366 25.6905 12.8322 27.1785 14.4746 27.1785H25.1227C26.7652 27.1785 28.0607 25.6905 27.7342 23.9894Z" fill="black"/>
</g>
</svg>
