<svg width="14" height="14" viewBox="0 0 14 14" fill="none" xmlns="http://www.w3.org/2000/svg">
<path opacity="0.35" d="M7.95535 7.81893C7.62521 7.48879 4.34188 4.20547 4.01175 3.87533C3.35148 3.21506 2.28163 3.21506 1.62136 3.87533C0.961092 4.5356 0.961092 5.60544 1.62136 6.26572C1.9515 6.59585 5.23483 9.87918 5.56496 10.2093C6.22523 10.8696 7.29508 10.8696 7.95535 10.2093C8.61562 9.54904 8.61562 8.47864 7.95535 7.81893Z" fill="black"/>
<path d="M7.95535 10.2088C8.28549 9.87869 11.5688 6.59536 11.899 6.26523C12.5592 5.60496 12.5592 4.53511 11.899 3.87484C11.2387 3.21457 10.1688 3.21457 9.50857 3.87484C9.17843 4.20498 5.8951 7.48831 5.56497 7.81844C4.9047 8.47871 4.9047 9.54856 5.56497 10.2088C6.22524 10.8691 7.29564 10.8691 7.95535 10.2088Z" fill="black"/>
</svg>
